<?xml version="1.0" ?><!DOCTYPE svg  PUBLIC '-//W3C//DTD SVG 1.1//EN'  'http://www.w3.org/Graphics/SVG/1.1/DTD/svg11.dtd'><svg enable-background="new 0 0 128 128" id="Слой_1" version="1.1" viewBox="0 0 128 128" xml:space="preserve" xmlns="http://www.w3.org/2000/svg" xmlns:xlink="http://www.w3.org/1999/xlink"><g><circle cx="23.5" cy="114" fill="#3EBBC4" r="3"/><circle cx="53.5" cy="114" fill="#3EBBC4" r="3"/><circle cx="103.5" cy="114" fill="#3EBBC4" r="3"/><path d="M107,62H86v44h8.6c-1.5,1.7-2.5,3.7-2.9,6H88v-4H69.7v4h-4.4c-0.4-2.3-1.4-4.3-2.9-6h12.2l8-47H91v-4H79.3   l-2.9,17H7.4L1.8,99.7l6.3,6.3h6.4c-1.9,2.1-3.1,4.9-3.1,8c0,6.6,5.4,12,12,12c5.9,0,10.9-4.3,11.8-10h6.4c1,5.7,5.9,10,11.8,10   s10.9-4.3,11.8-10h4.4v4H88v-4h3.7c1,5.7,5.9,10,11.8,10c5.9,0,10.9-4.3,11.8-10h3.6c3.9,0,7-3.1,7-7V91.1l-7.7-21.3   C116.6,65.2,112,62,107,62z M6.2,98.3L10.6,76h9.9l-3,15H25v-4h-2.6l2.2-11h15.9l-3,15H45v-4h-2.6l2.2-11h15.9l-3,15H65v-4h-2.6   l2.2-11h11.1l-4.4,26H9.8L6.2,98.3z M32.5,106h12.2c-1.5,1.7-2.5,3.7-2.9,6h-6.4C35,109.7,33.9,107.7,32.5,106z M23.5,122   c-4.4,0-8-3.6-8-8s3.6-8,8-8s8,3.6,8,8S27.9,122,23.5,122z M53.5,122c-4.4,0-8-3.6-8-8s3.6-8,8-8s8,3.6,8,8S58,122,53.5,122z    M84,116H73.7v-4H84V116z M114.8,72l6.3,17.4l-12.7-2.5c-1.4-0.3-2.4-1.5-2.4-2.9V72H114.8z M103.5,122c-4.4,0-8-3.6-8-8s3.6-8,8-8   s8,3.6,8,8S108,122,103.5,122z M119,112h-3.6c-0.9-5.5-5.6-9.8-11.4-10v0H90V66h17c2,0,3.8,0.8,5.3,2H102v15.9   c0,3.3,2.4,6.2,5.6,6.9l14.4,2.9V109C122,110.7,120.7,112,119,112z" fill="#3EBBC4"/></g></svg>